# xmcd CD database file
#
# Track frame offsets:
#	150
#	20005
#	49269
#	69805
#	95930
#	121835
#	149609
#	178697
#	225479
#
# Disc length: 3345 seconds
#
# Revision: 0
# Processed by: cddbd v1.5.2PL0 Copyright (c) Steve Scherf et al.
# Submitted via: CDex 1.51
#
DISCID=7c0d0f09
DTITLE=Ruby Braff - Where's Freddie
DYEAR=1900
DGENRE=Jazz
TTITLE0=Don`t Blame Me
TTITLE1=Mean To Me
TTITLE2=You've Changed
TTITLE3=Hear Me Talkin' To Ya
TTITLE4=No One Else But You
TTITLE5=Nobody Knows You When You're Down And Out
TTITLE6=Where's Freddie
TTITLE7=Between The Devil And The Deep Blue Sea
TTITLE8=Smart Apex Blues
EXTD=
EXTT0=
EXTT1=
EXTT2=
EXTT3=
EXTT4=
EXTT5=
EXTT6=
EXTT7=
EXTT8=
PLAYORDER=
